<svg xmlns="http://www.w3.org/2000/svg" viewBox="0 0 600 168" xmlns:v="https://vecta.io/nano"><path d="M460.637 126.511L409.353 5.995c-1.075-2.525-3.554-4.165-6.298-4.165h-17.981c-.261 0-.517.028-.772.057l-.002-.057c-2.745 0-5.223 1.64-6.298 4.165l-51.283 120.516a6.85 6.85 0 0 0 6.299 9.525h.775 14.159.775c2.782 0 5.289-1.684 6.339-4.261l32.28-79.181c2.316-5.681 10.361-5.681 12.679 0l32.28 79.181c1.051 2.576 3.556 4.261 6.338 4.261h15.696c4.908 0 8.22-5.011 6.299-9.525zM311.264 59.321h-44.18c-3.78 0-6.845 3.065-6.845 6.845v11.629c0 3.78 3.065 6.845 6.845 6.845h15.817c3.78 0 6.844 3.065 6.844 6.845v8.585c0 2.469-1.33 4.744-3.474 5.968-6.806 3.882-14.847 5.822-24.128 5.822-5.966 0-11.392-1.046-16.277-3.146s-9.136-5.058-12.753-8.873-6.41-8.298-8.377-13.45-2.949-10.78-2.949-16.886v-.381c0-5.723.981-11.097 2.949-16.121s4.695-9.411 8.187-13.166 7.549-6.743 12.183-8.968 9.613-3.339 14.942-3.339c3.808 0 7.296.318 10.471.951s6.121 1.523 8.852 2.665 5.358 2.541 7.9 4.189c.876.569 1.75 1.169 2.625 1.798 2.907 2.091 6.947 1.552 9.233-1.207l9.735-11.741c2.539-3.062 1.932-7.624-1.293-9.948-1.602-1.154-3.228-2.245-4.88-3.27-3.684-2.284-7.615-4.188-11.803-5.71s-8.726-2.695-13.611-3.522S266.966.498 261.001.498c-10.154 0-19.483 1.808-27.982 5.425s-15.866 8.566-22.083 14.848-11.073 13.581-14.563 21.892-5.235 17.228-5.235 26.746v.379c0 9.899 1.714 19.037 5.141 27.413s8.216 15.61 14.373 21.702 13.514 10.85 22.081 14.277 18.052 5.14 28.461 5.14c12.183 0 23.001-2.065 32.456-6.187 8.277-3.609 15.561-7.878 21.843-12.804a6.85 6.85 0 0 0 2.616-5.393V66.165c0-3.78-3.063-6.845-6.844-6.845zM167.529 2.782h-15.625c-3.781 0-6.846 3.065-6.846 6.845v119.564c0 3.781 3.065 6.845 6.846 6.845h15.625c3.78 0 6.845-3.064 6.845-6.845V9.627c0-3.78-3.065-6.845-6.845-6.845zm-40.555 63.383v47.771a6.85 6.85 0 0 1-2.616 5.393c-6.285 4.926-13.567 9.195-21.845 12.804-9.456 4.122-20.274 6.187-32.457 6.187-10.408 0-19.894-1.713-28.46-5.14s-15.928-8.186-22.081-14.277S8.569 105.578 5.142 97.201.001 79.688.001 69.789v-.379c0-9.519 1.745-18.433 5.236-26.746s8.344-15.61 14.564-21.892S33.379 9.541 41.882 5.924 59.711.498 69.866.498c5.963 0 11.389.414 16.274 1.237s9.424 1.998 13.612 3.522 8.12 3.426 11.802 5.71c1.653 1.025 3.279 2.116 4.882 3.27 3.226 2.324 3.831 6.885 1.293 9.948l-9.735 11.741c-2.287 2.759-6.326 3.298-9.235 1.207a68.51 68.51 0 0 0-2.624-1.798c-2.541-1.648-5.173-3.046-7.901-4.189s-5.68-2.028-8.853-2.665-6.662-.951-10.469-.951c-5.331 0-10.311 1.115-14.942 3.339s-8.694 5.215-12.183 8.968-6.22 8.142-8.186 13.166-2.951 10.398-2.951 16.121v.381c0 6.107.981 11.733 2.951 16.886s4.758 9.636 8.376 13.45 7.868 6.772 12.754 8.873 10.31 3.146 16.277 3.146c9.282 0 17.323-1.94 24.127-5.822 2.144-1.224 3.476-3.499 3.476-5.968v-8.585a6.85 6.85 0 0 0-6.846-6.845H75.949c-3.781 0-6.845-3.065-6.845-6.845V66.165c0-3.78 3.065-6.845 6.845-6.845h44.181c3.781 0 6.844 3.065 6.844 6.845" fill-rule="evenodd" fill="#232323"/><path d="M596.131 66.794h-47.534a3.87 3.87 0 0 1-3.737-4.864l12.685-47.56a3.87 3.87 0 0 0-3.736-4.864h-37.191c-1.752 0-3.285 1.177-3.736 2.87l-13.746 51.547c-.451 1.693-1.984 2.869-3.737 2.869h-59.216a1.64 1.64 0 0 0-1.638 1.637v11.33c0 .589 1.095 1.566 1.624 1.566h11.393c.897 0 1.624.727 1.624 1.624v11.392c0 .898-.727 1.626-1.625 1.626H436.17c-1.851 0-1.624 1.414-1.624 1.776V109c0 .946.767 1.714 1.714 1.714h45.303a3.87 3.87 0 0 1 3.737 4.862l-12.683 47.562-.035.134c-.649 2.38 1.115 4.728 3.581 4.728h37.38c1.752 0 3.285-1.177 3.736-2.87l13.745-51.547c.451-1.693 1.984-2.869 3.736-2.869h51.67c1.75 0 3.282-1.175 3.735-2.867l9.702-36.185a3.87 3.87 0 0 0-3.735-4.868M432.825 81.793h-.372-10.743-.372a1.22 1.22 0 0 0-1.219 1.216v.225 10.834.481a1.17 1.17 0 0 0 1.163 1.164h.426 10.744.427c.639 0 1.162-.523 1.162-1.164v-.479-10.834-.225a1.22 1.22 0 0 0-1.217-1.218m-10.859-2.675a1.06 1.06 0 0 0 1.062-1.062v-8.403c0-.672-.545-1.217-1.216-1.217h-8.52a.95.95 0 0 0-.948.949v8.907c0 .457.37.826.826.826l4.448.002v-.002zm-38.299 6.97h-1.997v.001l-3.962-.001a.66.66 0 0 0-.661.661v5.854c0 .428.347.775.775.775h5.656a.86.86 0 0 0 .86-.861V86.76c0-.369-.301-.671-.67-.671m11.16 11.734h-2.601v.001l-5.162-.001a.86.86 0 0 0-.861.861v7.627a1.01 1.01 0 0 0 1.011 1.01h7.368a1.12 1.12 0 0 0 1.12-1.122v-7.501c0-.481-.393-.874-.874-.874m10.821-14.403h-2.922v.001l-5.798-.001c-.534 0-.967.432-.967.967v8.567c0 .626.509 1.134 1.135 1.134h8.275a1.26 1.26 0 0 0 1.258-1.259v-8.426c0-.54-.441-.983-.981-.983m9.388 13.233c.54 0 .981.442.981.983v8.426a1.26 1.26 0 0 1-1.258 1.259h-8.276c-.626 0-1.135-.508-1.135-1.134v-8.567c0-.535.433-.967.967-.967l5.798.001h0 2.923m-72.066 46.68h18.601l-1.325 4.885h-13.229l-1.392 5.2h11.655l-1.292 4.886h-11.655l-2.549 9.457h-5.376l6.562-24.428m27.427 0h5.371l-6.559 24.428h-5.375l6.562-24.428m23.516 9.875c2.791 0 4.396-.906 4.396-2.965 0-1.258-1.013-2.2-3.384-2.2h-5.062l-1.359 5.165zm-1.746 9.842c2.687 0 4.363-1.152 4.363-3.071 0-1.431-1.117-2.304-3.35-2.304h-5.897l-1.433 5.376zm-6.246-19.717h9.492c5.725 0 8.271 2.723 8.271 6.002 0 3.246-2.059 5.34-5.233 6.038 2.058.942 3.417 2.442 3.417 4.955 0 4.363-3.733 7.434-10.505 7.434h-12.001l6.559-24.428m36.045 11.864c2.092 0 3.837-.488 4.921-1.571.663-.663 1.012-1.5 1.012-2.477 0-.802-.245-1.432-.767-1.955-.666-.663-1.85-1.012-3.562-1.012h-4.5l-1.884 7.015zm-2.059 4.746h-4.013l-2.096 7.817h-5.375l6.562-24.428h8.9c3.629 0 6.105.802 7.746 2.443 1.255 1.255 1.884 2.896 1.884 4.92 0 2.373-.8 4.362-2.233 5.793-.942.942-2.584 2.233-5.654 2.932l4.154 8.34h-6.108l-3.767-7.817m34.37-2.408l-1.117-8.061-5.375 8.061zm-2.129-14.378h5.163l3.875 24.603h-5.513l-.767-5.48h-10.33l-3.7 5.48h-5.792l17.063-24.603" fill="#06077d"/></svg>